# xmcd
#
# Track frame offsets: 
#        150
#        21672
#        38205
#        59480
#        75012
#        88242
#        101995
#        118627
#        138475
#        157967
#        172005
#        191035
#        203467
#        219655
#        239907
#        257367
#        272910
#        292780
#        313347
#        329790
#
# Disc length: 4605 seconds
#
# Revision: 6
# Processed by: cddbd v1.5.2PL0 Copyright (c) Steve Scherf et al.
# Submitted via: ExactAudioCopy v0.99pb5
#
DISCID=3311fb14
DTITLE=Joan Baez - Greatest Hits
DYEAR=1996
DGENRE=Folk
TTITLE0=Diamonds and Rust
TTITLE1=Night They Drove Old Dixie Down
TTITLE2=Simple Twist Of Fate
TTITLE3=Imagine
TTITLE4=In The Quiet Morning (For Janis Joplin)
TTITLE5=Best Of Friends
TTITLE6=Forever Young
TTITLE7=Prison Trilogy (Billy Rose)
TTITLE8=Jesse
TTITLE9=Children and All That Jazz
TTITLE10=Please Come To Boston
TTITLE11=Never Dreamed You'd Leave In Summer
TTITLE12=Gracias A La Vida
TTITLE13=Sweeter For Me
TTITLE14=Love Song To A Stranger
TTITLE15=Dida
TTITLE16=Amazing Grace
TTITLE17=Ballada Of Sacco and Vanzetti, The
TTITLE18=Oh Happy Day
TTITLE19=Less Than The Song
EXTD=YEAR: 1996
EXTT0=
EXTT1=
EXTT2=
EXTT3=
EXTT4=
EXTT5=
EXTT6=
EXTT7=
EXTT8=
EXTT9=
EXTT10=
EXTT11=
EXTT12=
EXTT13=
EXTT14=
EXTT15=
EXTT16=
EXTT17=
EXTT18=
EXTT19=
PLAYORDER=
